<svg xmlns="http://www.w3.org/2000/svg" xmlns:xlink="http://www.w3.org/1999/xlink" viewBox="0 0 281.18 242.94"><defs><style>.cls-1,.cls-11{fill:none;}.cls-1{stroke:#0c0b36;stroke-miterlimit:10;stroke-width:2px;}.cls-2{fill:#838db8;}.cls-3{fill:#c7d2fe;}.cls-4{fill:#0c0942;}.cls-5{fill:url(#radial-gradient);}.cls-6{fill:url(#radial-gradient-2);}.cls-7{fill:#cc092f;}.cls-8{fill:#006400;}.cls-9{fill:#ffd200;}.cls-10{fill:#d40000;}.cls-12{fill:#d9e1ff;}</style><radialGradient id="radial-gradient" cx="110.24" cy="156.01" r="15.61" gradientUnits="userSpaceOnUse"><stop offset="0.75" stop-color="#e6d64e"/><stop offset="0.79" stop-color="#e1d14b"/><stop offset="0.83" stop-color="#d4c443"/><stop offset="0.88" stop-color="#bead36"/><stop offset="0.93" stop-color="#9f8d23"/><stop offset="0.98" stop-color="#78640b"/><stop offset="1" stop-color="#665200"/></radialGradient><radialGradient id="radial-gradient-2" cx="169.24" cy="156.01" r="15.61" xlink:href="#radial-gradient"/></defs><g id="Layer_2" data-name="Layer 2"><g id="Layer_1-2" data-name="Layer 1"><line class="cls-1" x1="96.14" y1="64.45" x2="74.14" y2="1.45"/><line class="cls-1" x1="182.14" y1="65.45" x2="205.14" y2="0.45"/><path class="cls-2" d="M94,65.37C91.62,69,82.64,75,79.64,80s-14,29-15,34,0,119,0,120.27l-2.26-.5-6.74-1.61V127.44c0-1.69.06-3.36.2-5,0,0,0,0,0,0a64.94,64.94,0,0,1,2.67-14.23.36.36,0,0,1,0-.11,68.38,68.38,0,0,1,8.76-18.3c.08-.14.18-.29.28-.43s.16-.24.25-.35l.1-.15C69.21,87,70.58,85.2,72,83.47a.69.69,0,0,1,.11-.13l0,0a74.34,74.34,0,0,1,5.07-5.45,81,81,0,0,1,15.94-12Z"/><path class="cls-3" d="M220.64,228v4.16c-50.9,14.17-103,14-156,2.12h0c0-1.31-1-115.3,0-120.27s12-29,15-34S91.62,69,94,65.37a0,0,0,0,0,0,0c.69-.39,1.39-.77,2.09-1.14a91.27,91.27,0,0,1,86.43,1.24A81.29,81.29,0,0,1,192.35,72s-2.29,5.89,0,8.9,10.29,9,16.29,19,9,20,9,31v46.58s-3,48.57,0,49.49Z"/><path class="cls-4" d="M195,187.21a279.44,279.44,0,0,1-112.67,0,4.91,4.91,0,0,1-4.66-5.14V129.5a4.91,4.91,0,0,1,4.66-5.14q53.34-9,112.67,0a4.92,4.92,0,0,1,4.67,5.14v52.57A4.92,4.92,0,0,1,195,187.21Z"/><circle class="cls-5" cx="110.24" cy="156.01" r="15.61"/><circle class="cls-6" cx="169.24" cy="156.01" r="15.61"/><path d="M82.17,23.1l8,23C64.45,52,41.57,66.1,15.83,72q-4-11.49-8-23C33.55,43.13,56.43,29,82.17,23.1Z"/><path class="cls-7" d="M74.36.73,82.17,23.1c-25.74,5.94-48.62,20-74.36,26Q3.91,37.88,0,26.7C25.74,20.76,48.62,6.67,74.36.73Z"/><path class="cls-8" d="M281.18,26.85l-2.39,6.77c-27.14-3.54-48.5-23.44-75.68-26.85L205.5,0C232.69,3.41,254,23.31,281.18,26.85Z"/><path class="cls-8" d="M267.17,66.45,264.85,73c-27.14-3.55-48.49-23.45-75.68-26.86l2.32-6.57C218.68,43,240,62.9,267.17,66.45Z"/><path class="cls-9" d="M278.79,33.62l-2.32,6.57c-27.17-3.48-48.55-23.3-75.76-26.65l2.4-6.77C230.29,10.18,251.65,30.08,278.79,33.62Z"/><path class="cls-9" d="M269.5,59.89l-2.33,6.56C240,62.9,218.68,43,191.49,39.59L193.81,33C221,36.45,242.36,56.34,269.5,59.89Z"/><path class="cls-10" d="M271.82,53.32l-2.32,6.57C242.36,56.34,221,36.45,193.81,33l2.33-6.56C223.33,29.88,244.68,49.77,271.82,53.32Z"/><path class="cls-10" d="M276.47,40.19l-2.33,6.56C247,43.21,225.65,23.31,198.46,19.9l2.25-6.36C227.92,16.89,249.3,36.71,276.47,40.19Z"/><path d="M274.14,46.75l-2.32,6.57c-27.14-3.55-48.49-23.44-75.68-26.85l2.32-6.57C225.65,23.31,247,43.21,274.14,46.75Z"/><path class="cls-11" d="M64.64,234.23h0"/><path class="cls-11" d="M94,65.36a0,0,0,0,1,0,0"/><path class="cls-12" d="M220.64,127.44V232s-3-1.07-6-2,0-50,0-50-1-37-1-48-5-21-11-31-8-17-10.29-20,0-8.9,0-8.9q2.13,1.65,4.13,3.43C211.4,88.77,220.64,107.15,220.64,127.44Z"/></g></g></svg>